<svg version="1.1" id="Layer_1" xmlns="http://www.w3.org/2000/svg" xmlns:xlink="http://www.w3.org/1999/xlink" x="0px" y="0px"
	 width="100%" viewBox="0 0 2400 2400" enable-background="new 0 0 2400 2400" xml:space="preserve">
<path fill="" opacity="0.0" stroke="none" 
	d="
M1324.000000,2402.000000 
	C882.666687,2402.000000 442.333344,2402.000000 2.000000,2402.000000 
	C2.000000,1602.000000 2.000000,802.000000 2.000000,2.000000 
	C802.000000,2.000000 1602.000000,2.000000 2402.000000,2.000000 
	C2402.000000,802.000000 2402.000000,1602.000000 2402.000000,2402.000000 
	C2043.000000,2402.000000 1684.000000,2402.000000 1324.000000,2402.000000 
M999.910278,1269.732178 
	C990.501343,1273.040649 980.933105,1275.962280 971.722900,1279.753540 
	C959.693481,1284.705444 948.074646,1290.558960 939.082886,1300.406982 
	C929.842590,1310.527344 928.996399,1321.994629 937.012756,1333.108643 
	C939.507324,1336.567017 942.623169,1339.691528 945.883850,1342.463989 
	C963.274536,1357.251343 984.253296,1365.027832 1005.574585,1371.615601 
	C1054.206055,1386.641479 1104.392456,1391.947632 1155.007446,1393.520996 
	C1171.923706,1394.046631 1188.893677,1392.720581 1205.841919,1392.373047 
	C1237.814331,1391.717407 1269.422852,1387.691162 1300.849487,1382.097900 
	C1344.196411,1374.383423 1386.434814,1362.700684 1427.270386,1346.134399 
	C1430.711426,1344.738281 1434.029541,1343.038574 1437.638428,1341.372070 
	C1436.618896,1340.172363 1436.455566,1339.803345 1436.183594,1339.685425 
	C1410.237671,1328.444092 1384.439453,1316.924072 1360.043579,1302.478027 
	C1357.478638,1300.959351 1353.619995,1300.580811 1350.586060,1301.068848 
	C1330.910767,1304.234131 1311.337646,1308.038818 1291.655518,1311.157227 
	C1254.556274,1317.034912 1217.240356,1321.010742 1179.657471,1321.547729 
	C1164.053345,1321.770874 1148.400269,1321.255371 1132.824829,1320.232910 
	C1104.334106,1318.362915 1075.824097,1316.431152 1047.443604,1313.390991 
	C1033.333740,1311.879639 1019.422424,1308.147339 1005.572266,1304.795776 
	C1001.204712,1303.738770 996.933411,1301.168823 993.314148,1298.385986 
	C987.294189,1293.757324 986.670288,1287.809692 991.213989,1281.750244 
	C993.589966,1278.581543 996.839600,1276.081543 999.440796,1273.060791 
	C1000.336548,1272.020630 1000.462585,1270.317749 1001.329834,1269.001587 
	C1001.329834,1269.001587 1001.126465,1268.806763 999.910278,1269.732178 
M1537.181396,416.048584 
	C1533.929932,416.599060 1530.555176,416.765350 1527.446777,417.762024 
	C1506.234985,424.563416 1484.850586,430.915771 1463.950562,438.581665 
	C1411.629028,457.772614 1361.235596,481.013153 1314.990479,512.510437 
	C1284.550781,533.242737 1256.797241,556.836182 1235.252563,587.119141 
	C1217.916626,611.486145 1206.686890,638.231445 1204.440918,668.163025 
	C1202.093384,699.451782 1209.548096,728.897461 1223.219116,756.929626 
	C1236.310059,783.772583 1254.296387,807.179626 1273.291992,830.029846 
	C1296.021362,857.371460 1304.905518,888.223267 1293.337769,923.101074 
	C1287.054688,942.044739 1276.414062,958.431458 1262.643921,972.823486 
	C1260.276123,975.298157 1257.963867,977.825928 1254.318604,981.729065 
	C1257.498901,981.275513 1258.561035,981.408691 1259.292603,980.978943 
	C1295.512817,959.699036 1328.340454,934.376099 1352.208130,899.235779 
	C1378.705078,860.224365 1382.332153,819.684814 1357.273926,778.399963 
	C1351.245361,768.467346 1343.956543,759.298218 1337.223877,749.794556 
	C1323.947144,731.052673 1310.414429,712.460815 1300.557495,691.579651 
	C1288.513184,666.064514 1285.291016,640.138733 1297.085083,613.487366 
	C1304.861328,595.915283 1315.867676,580.570007 1328.898682,566.626709 
	C1355.859741,537.778381 1386.928467,513.837708 1419.203247,491.336578 
	C1458.003052,464.286652 1498.401245,439.788025 1538.568848,416.200317 
	C1538.695312,416.179962 1538.821899,416.159576 1537.181396,416.048584 
M1202.011597,930.362915 
	C1202.011597,930.362915 1202.283569,930.098267 1202.283569,930.098267 
	C1202.283569,930.098267 1201.657959,930.334045 1202.062012,928.844849 
	C1197.583496,919.948364 1193.895752,910.535156 1188.482178,902.249512 
	C1170.281128,874.391785 1151.414429,846.969666 1132.900269,819.315430 
	C1117.512939,796.331787 1103.021851,772.858337 1093.216064,746.793823 
	C1080.097900,711.925171 1078.219604,676.944702 1090.975952,641.484375 
	C1098.152832,621.534058 1108.612183,603.467346 1121.192261,586.587769 
	C1143.616211,556.499695 1170.810791,531.128967 1200.075562,507.870483 
	C1237.370239,478.230316 1273.147827,446.973755 1304.548462,410.966919 
	C1329.153809,382.752167 1351.156982,352.761688 1367.328735,318.853058 
	C1386.159546,279.369385 1396.125244,238.143311 1390.200439,194.100845 
	C1386.308838,165.171707 1375.702026,138.905640 1358.175171,115.513138 
	C1356.790283,113.664543 1354.859741,112.224724 1351.547607,109.005714 
	C1352.245850,113.451485 1352.447998,115.402946 1352.867188,117.306580 
	C1358.836304,144.413116 1361.303711,171.660828 1358.482666,199.463165 
	C1354.196045,241.707535 1338.025024,279.030212 1313.472656,313.122864 
	C1286.987183,349.899780 1253.913330,380.210022 1218.958496,408.573700 
	C1182.532104,438.131470 1145.500366,466.948425 1109.289551,496.764801 
	C1079.426392,521.354431 1051.812256,548.304749 1029.421143,580.149231 
	C1009.063110,609.102112 999.988159,640.763977 1005.561462,676.257385 
	C1009.345947,700.358826 1018.726685,722.246277 1030.779297,743.105103 
	C1051.567017,779.081177 1078.272339,810.535645 1106.980347,840.275146 
	C1126.403076,860.395752 1146.553101,879.831360 1166.779541,899.152954 
	C1178.037598,909.907410 1190.118286,919.800720 1202.011597,930.362915 
M1695.265991,1847.735474 
	C1681.358887,1836.109619 1664.969604,1829.821533 1647.516602,1826.237793 
	C1625.208984,1821.657471 1602.723145,1821.685303 1580.021851,1823.421753 
	C1546.138672,1826.013428 1513.844604,1834.437256 1482.494751,1847.082031 
	C1479.799072,1848.169312 1477.259888,1849.644531 1474.231812,1851.145996 
	C1477.748901,1865.826050 1481.121826,1879.904663 1484.717407,1894.912720 
	C1491.878052,1892.661743 1497.851929,1890.819946 1503.802734,1888.906616 
	C1535.149414,1878.828125 1567.209351,1873.679688 1600.161499,1875.866943 
	C1607.706177,1876.367798 1615.387573,1878.027954 1622.541138,1880.500244 
	C1635.613403,1885.018188 1646.014404,1893.272949 1651.278931,1906.512939 
	C1658.902588,1925.685303 1656.055908,1945.618530 1655.907959,1965.601196 
	C1637.958740,1966.314575 1621.061035,1966.853027 1604.177979,1967.686523 
	C1574.009277,1969.175537 1544.655151,1974.623901 1517.275024,1987.857666 
	C1492.124390,2000.013550 1472.546631,2017.980469 1462.939209,2044.946045 
	C1453.566040,2071.253906 1453.698120,2097.937744 1462.638428,2124.258057 
	C1470.506226,2147.420898 1486.786743,2163.220703 1509.549927,2171.639404 
	C1536.424805,2181.579102 1564.089355,2182.352783 1592.063965,2176.550293 
	C1616.832886,2171.412842 1637.840332,2158.895996 1657.557861,2143.737793 
	C1660.007935,2141.854492 1662.512695,2140.042725 1666.030396,2137.425293 
	C1668.242554,2150.527100 1670.154297,2161.850586 1672.026611,2172.939453 
	C1691.007568,2172.939453 1708.834106,2172.939453 1727.686157,2172.939453 
	C1727.686157,2168.274170 1727.686157,2164.350342 1727.686157,2160.426514 
	C1727.686157,2082.101562 1727.736450,2003.776733 1727.605957,1925.452148 
	C1727.593262,1917.842651 1727.048340,1910.132446 1725.738770,1902.645996 
	C1722.027710,1881.429443 1713.565552,1862.616089 1695.265991,1847.735474 
M889.584290,2177.705811 
	C908.782959,2180.807617 928.000061,2181.033447 947.117798,2177.338867 
	C972.539246,2172.426514 994.573364,2160.339111 1014.775208,2144.559082 
	C1017.530029,2142.407471 1020.286560,2140.257812 1024.303223,2137.123047 
	C1026.438110,2150.270752 1028.279541,2161.612305 1030.120483,2172.950195 
	C1049.116211,2172.950195 1067.268555,2172.950195 1085.881348,2172.950195 
	C1086.053223,2169.286377 1086.311768,2166.334717 1086.312622,2163.383057 
	C1086.335083,2086.389404 1086.422485,2009.395630 1086.221558,1932.402588 
	C1086.194824,1922.139404 1085.417236,1911.756958 1083.722168,1901.641846 
	C1078.505981,1870.515869 1061.589111,1847.868774 1032.705566,1834.716919 
	C1014.586304,1826.466431 995.185364,1823.220581 975.494751,1822.433838 
	C940.306946,1821.027954 905.774475,1825.555786 872.095459,1835.957886 
	C858.799805,1840.064331 845.452148,1844.137573 832.521790,1851.142090 
	C835.932251,1865.538574 839.272339,1879.637817 842.501709,1893.269531 
	C844.195007,1893.667358 844.904419,1894.076660 845.461365,1893.925293 
	C848.986755,1892.967285 852.510010,1891.980469 855.976013,1890.828735 
	C888.469055,1880.031616 921.667358,1873.639526 956.047058,1875.835327 
	C964.255859,1876.359497 972.629028,1877.902222 980.429077,1880.481201 
	C996.259216,1885.715698 1007.279297,1896.444458 1011.677368,1912.854614 
	C1016.309021,1930.136108 1014.008789,1947.719116 1013.965027,1966.328125 
	C1009.142822,1966.328125 1005.219604,1966.151367 1001.316650,1966.357666 
	C980.416992,1967.462158 959.433105,1967.826904 938.649231,1970.047119 
	C914.362732,1972.641602 890.925171,1979.111572 869.346558,1991.096924 
	C842.743408,2005.873169 824.408203,2027.048828 817.536316,2057.379395 
	C812.559875,2079.344238 813.283081,2101.020264 820.290405,2122.312500 
	C827.779114,2145.067383 842.704834,2161.390625 865.055359,2170.350098 
	C872.427002,2173.305176 880.261475,2175.105225 889.584290,2177.705811 
M1320.421875,2172.404785 
	C1321.701416,2170.094482 1323.123047,2167.850586 1324.239502,2165.464111 
	C1346.826660,2117.180420 1365.469360,2067.374512 1381.398926,2016.539795 
	C1399.813110,1957.776489 1414.466309,1898.071899 1425.623535,1837.513794 
	C1426.129883,1834.765991 1425.688599,1831.843506 1425.688599,1828.956543 
	C1400.799194,1828.956543 1376.645142,1828.956543 1351.601196,1828.956543 
	C1345.122681,1875.164917 1336.708252,1920.530518 1325.334961,1965.296143 
	C1314.015991,2009.848389 1301.192627,2053.935547 1284.093262,2096.971191 
	C1282.035889,2093.154541 1281.103516,2089.400879 1280.202637,2085.639648 
	C1276.022095,2068.183838 1272.698120,2050.470215 1267.520020,2033.315918 
	C1250.512329,1976.971313 1232.850952,1920.823853 1215.398071,1864.614014 
	C1211.664307,1852.588501 1207.751831,1840.618530 1204.038940,1828.990356 
	C1184.025146,1827.145142 1134.786865,1827.891968 1126.792358,1830.393799 
	C1161.923584,1944.665405 1197.056641,2058.942871 1232.223145,2173.328857 
	C1261.818970,2173.328857 1290.425537,2173.328857 1320.421875,2172.404785 
M743.919495,1442.195923 
	C742.861267,1437.067505 744.702942,1433.001099 748.696594,1429.898438 
	C753.145996,1426.441895 757.368896,1422.459229 762.311340,1419.909546 
	C797.276672,1401.873047 834.191895,1390.375610 873.631470,1387.634521 
	C877.640442,1387.355957 881.607910,1386.481812 885.594604,1385.884033 
	C881.671814,1382.581909 877.756104,1380.883911 873.667603,1379.917236 
	C857.877319,1376.183838 841.791931,1376.827637 825.972412,1378.743042 
	C786.428162,1383.531006 748.426941,1394.441284 712.021118,1410.564087 
	C692.205017,1419.339966 672.839172,1429.079102 657.480469,1445.027710 
	C642.213074,1460.881592 644.412170,1476.767944 663.366638,1487.460815 
	C664.235352,1487.950806 665.172913,1488.317261 666.054016,1488.786987 
	C678.829956,1495.598022 692.589417,1499.828369 706.736816,1501.928101 
	C757.655334,1509.484619 808.563599,1517.266846 859.664612,1523.387207 
	C898.545288,1528.043945 937.680115,1530.773193 976.762390,1533.489380 
	C1006.923401,1535.585449 1037.171509,1537.237305 1067.393066,1537.466797 
	C1114.305786,1537.823242 1161.236572,1537.173584 1208.144897,1536.223511 
	C1235.708252,1535.665161 1263.264038,1534.028931 1290.784302,1532.266846 
	C1313.975830,1530.781738 1337.123291,1528.551270 1360.268188,1526.411621 
	C1410.280151,1521.787964 1459.880127,1514.305664 1509.046143,1504.077881 
	C1552.417114,1495.055786 1595.316040,1484.302124 1636.050903,1466.391479 
	C1652.238647,1459.273926 1668.286377,1451.680542 1680.291626,1438.126343 
	C1683.688721,1434.290771 1686.900391,1429.468018 1688.023315,1424.596802 
	C1691.253418,1410.583862 1677.980713,1395.035034 1662.078735,1393.549194 
	C1662.852051,1394.853516 1663.503540,1395.976440 1664.177856,1397.085327 
	C1671.457764,1409.058105 1670.665039,1417.688110 1660.895508,1427.491943 
	C1657.639404,1430.759399 1654.063110,1434.147095 1649.969727,1436.058472 
	C1637.652588,1441.809570 1625.348511,1447.950806 1612.428223,1451.980591 
	C1573.913452,1463.992920 1534.095947,1470.053589 1494.252930,1475.614380 
	C1438.968872,1483.330078 1383.339478,1487.690674 1327.682373,1491.527344 
	C1300.172852,1493.423584 1272.605347,1494.712646 1245.041870,1495.531006 
	C1208.453857,1496.617920 1171.845337,1497.049927 1135.242798,1497.574097 
	C1129.294922,1497.659302 1123.339111,1496.518677 1117.376343,1496.369263 
	C1087.110352,1495.610718 1056.830078,1495.298706 1026.576172,1494.226685 
	C1003.008911,1493.391602 979.465393,1491.793457 955.924927,1490.318481 
	C915.434875,1487.781372 875.195496,1483.028809 835.299561,1475.648560 
	C809.429871,1470.863037 783.763367,1465.055908 759.563049,1454.423828 
	C754.009094,1451.983765 749.429932,1447.325073 743.919495,1442.195923 
M685.325134,2280.289307 
	C691.882751,2275.731201 698.658691,2271.454834 704.960266,2266.566650 
	C732.480896,2245.218506 751.201477,2218.190674 758.242554,2183.595947 
	C762.506775,2162.644775 764.210754,2141.431885 764.241943,2120.162109 
	C764.439209,1985.845825 764.349548,1851.529175 764.327148,1717.212524 
	C764.326599,1713.974854 764.007324,1710.737183 763.847229,1707.698608 
	C751.887207,1705.356201 695.808105,1705.875610 688.325684,1708.455322 
	C688.325684,1712.540771 688.325684,1716.851196 688.325623,1721.161621 
	C688.325195,1855.144897 688.401855,1989.128418 688.207214,2123.111328 
	C688.187439,2136.709473 687.088745,2150.370850 685.484558,2163.883301 
	C683.873657,2177.453369 680.334900,2190.622559 673.103943,2202.552246 
	C660.530273,2223.297363 642.808533,2238.579102 622.357178,2251.052979 
	C619.965698,2252.511719 617.730469,2254.226807 614.859253,2256.212891 
	C626.822937,2270.302002 637.981323,2283.443115 649.305176,2296.778809 
	C662.175232,2293.485840 673.161316,2287.338867 685.325134,2280.289307 
M780.929443,997.952881 
	C779.578979,998.925964 778.163330,999.820923 776.888184,1000.884338 
	C764.163513,1011.496277 764.375610,1021.913696 778.532043,1030.177612 
	C787.051880,1035.151001 796.442139,1039.086304 805.913269,1041.898438 
	C846.281433,1053.884888 887.990601,1058.152466 929.727356,1061.533813 
	C958.863220,1063.894409 988.108643,1065.862183 1017.321533,1066.115112 
	C1078.874756,1066.647949 1140.472656,1067.652588 1201.927856,1062.401978 
	C1226.740723,1060.282104 1251.584961,1058.528320 1276.393921,1056.367188 
	C1326.451904,1052.006592 1375.997437,1044.163086 1425.071167,1033.467041 
	C1436.364868,1031.005371 1447.921631,1028.246338 1458.285645,1023.353882 
	C1476.901001,1014.566223 1494.706055,1004.061584 1512.844482,994.264343 
	C1514.487427,993.376892 1516.090820,992.416077 1517.712646,991.489258 
	C1514.824341,990.300720 1512.300293,990.170654 1509.874878,990.598938 
	C1443.111328,1002.386292 1375.907471,1011.003479 1308.451172,1017.440247 
	C1270.443359,1021.067017 1232.290405,1023.316650 1194.164062,1025.511230 
	C1167.609985,1027.039673 1140.992554,1028.066528 1114.398560,1028.178345 
	C1060.499878,1028.404907 1006.552307,1029.731445 952.779724,1024.297607 
	C933.582520,1022.357849 914.408325,1020.205688 895.974365,1014.158813 
	C890.968872,1012.516846 885.995300,1010.285217 881.589294,1007.426819 
	C875.445312,1003.441162 874.813110,998.725891 879.699280,993.213074 
	C882.950256,989.545044 886.932556,986.191650 891.214844,983.839600 
	C900.530579,978.722778 910.028015,973.805176 919.841125,969.749451 
	C952.195862,956.377319 985.875671,947.080933 1019.664185,938.175720 
	C1022.710022,937.372986 1025.712891,936.406982 1028.735718,935.516785 
	C1023.994324,933.677979 1019.460449,933.457458 1014.955017,933.721497 
	C1003.682373,934.381958 992.394470,934.980957 981.162842,936.105591 
	C943.308044,939.896118 906.354065,948.022400 870.198669,959.810120 
	C839.772705,969.729797 810.093567,981.424194 780.929443,997.952881 
M1444.472656,1187.380127 
	C1447.682739,1186.507935 1450.921997,1185.729004 1454.094849,1184.737305 
	C1457.243652,1183.753052 1460.325439,1182.554443 1464.821655,1180.958252 
	C1461.980591,1179.496948 1460.871948,1178.802490 1459.675537,1178.329956 
	C1440.909668,1170.920410 1423.820923,1160.682861 1408.833618,1147.205200 
	C1404.430176,1143.245117 1400.023193,1143.437500 1394.967407,1144.222046 
	C1355.235474,1150.388062 1315.533569,1156.766846 1275.743408,1162.534424 
	C1241.174683,1167.545166 1206.319946,1169.463501 1171.422485,1170.293701 
	C1119.461670,1171.529907 1067.653076,1168.591553 1015.979492,1163.478149 
	C1001.160156,1162.011597 986.424622,1159.164673 971.850403,1156.023926 
	C966.195190,1154.805176 960.731079,1151.562256 955.822510,1148.280396 
	C948.300964,1143.251587 946.239319,1136.353271 950.044800,1128.287231 
	C952.547058,1122.983398 956.515686,1118.343750 960.034119,1113.558594 
	C961.822815,1111.125732 964.067322,1109.028198 966.105835,1106.779053 
	C943.001099,1113.123901 921.197937,1121.069580 902.534485,1135.613892 
	C899.402344,1138.054688 896.509521,1140.875488 893.839233,1143.822510 
	C885.188965,1153.369629 884.808716,1168.811768 895.333313,1177.807739 
	C899.614807,1181.467285 903.854187,1185.587891 908.849670,1187.919678 
	C921.477356,1193.813965 934.192322,1199.885254 947.461121,1203.975342 
	C992.878479,1217.975464 1039.868530,1223.215332 1087.057129,1225.397949 
	C1128.607056,1227.319946 1170.284668,1227.906006 1211.837280,1224.316406 
	C1241.286865,1221.772339 1270.776733,1219.447998 1300.114014,1215.908813 
	C1348.376587,1210.086670 1395.922363,1200.297974 1444.472656,1187.380127 
M1537.178833,1552.225830 
	C1497.382446,1560.131348 1457.238281,1565.625488 1416.975586,1570.598389 
	C1364.179932,1577.119263 1311.151733,1580.339111 1258.112305,1583.549194 
	C1238.533447,1584.734131 1218.895752,1585.546509 1199.286621,1585.511475 
	C1155.331909,1585.433228 1111.378296,1584.737427 1067.424805,1584.241211 
	C1059.769165,1584.154785 1052.101929,1584.039917 1044.465088,1583.549561 
	C1018.612854,1581.889038 992.741150,1580.409302 966.935425,1578.182739 
	C942.455627,1576.070679 918.033813,1573.242798 893.616577,1570.465454 
	C878.827576,1568.783203 864.095642,1566.598511 849.338013,1564.639526 
	C853.536987,1568.603149 858.267212,1571.309570 863.298767,1573.223999 
	C887.353333,1582.376831 912.457703,1587.496826 937.710022,1591.873047 
	C978.675720,1598.972168 1020.063354,1602.618164 1061.477661,1605.473755 
	C1093.969482,1607.714233 1126.563965,1609.160645 1159.127686,1609.487427 
	C1200.072266,1609.898438 1241.034180,1608.947632 1281.984131,1608.302612 
	C1299.933228,1608.020020 1317.882446,1607.252197 1335.811646,1606.320923 
	C1356.711548,1605.235352 1377.593384,1603.783203 1398.476685,1602.395874 
	C1440.282959,1599.618652 1481.829956,1594.608887 1523.184204,1587.902832 
	C1566.920166,1580.810547 1610.145996,1571.622192 1652.011719,1556.822266 
	C1675.002808,1548.694702 1697.159668,1538.824951 1717.179565,1524.653076 
	C1730.962646,1514.895874 1742.802490,1503.394775 1749.894775,1487.732788 
	C1752.577271,1481.809204 1755.033447,1475.773071 1754.038574,1467.832153 
	C1744.352173,1479.619629 1733.327881,1488.076294 1720.904297,1494.590088 
	C1710.602051,1499.991943 1700.222046,1505.353638 1689.497314,1509.823364 
	C1641.031128,1530.022217 1590.221802,1541.974854 1537.178833,1552.225830 
M1689.253052,1047.622070 
	C1685.003296,1058.067017 1681.609131,1068.967529 1676.335815,1078.867310 
	C1662.995605,1103.912354 1643.383423,1123.812988 1621.886108,1141.942505 
	C1593.004761,1166.299316 1561.060669,1186.028442 1527.835815,1203.778564 
	C1523.122803,1206.296265 1518.614502,1208.721069 1516.815796,1215.200806 
	C1518.942383,1214.821777 1520.508179,1214.661499 1522.008423,1214.257568 
	C1549.977295,1206.727051 1577.432129,1197.674194 1604.125488,1186.385864 
	C1638.620483,1171.798096 1671.304688,1154.118408 1699.652588,1129.302002 
	C1717.826050,1113.392456 1733.495117,1095.405029 1743.703613,1073.176392 
	C1752.960083,1053.021484 1757.082153,1031.978882 1753.066895,1010.015259 
	C1746.299683,972.997009 1723.888306,947.858459 1690.556519,932.453369 
	C1650.898438,914.124573 1610.443237,916.276794 1570.177979,930.873108 
	C1561.982544,933.843933 1555.479370,939.593323 1549.479736,948.620239 
	C1558.046631,946.434082 1564.983521,944.789001 1571.849243,942.887024 
	C1588.477417,938.280579 1605.268433,937.044128 1621.902954,942.048340 
	C1658.855835,953.164856 1684.519531,975.542114 1690.585083,1015.338379 
	C1692.098999,1025.271118 1690.026001,1035.750488 1689.253052,1047.622070 
M1766.597656,1849.185303 
	C1767.055786,1848.365234 1767.514038,1847.545288 1768.384521,1845.987427 
	C1770.903320,1850.295288 1773.114624,1854.077271 1776.036255,1859.073975 
	C1779.078735,1854.782593 1781.319824,1851.621704 1784.052124,1847.768066 
	C1785.344971,1851.813599 1786.283936,1854.751465 1787.399414,1858.242065 
	C1789.211182,1857.375732 1791.140259,1857.020386 1791.291260,1856.294800 
	C1793.191162,1847.167358 1792.987305,1838.033813 1791.382446,1829.080688 
	C1786.265869,1827.499268 1783.095703,1828.274292 1781.548828,1833.342896 
	C1780.536621,1836.659302 1778.750366,1839.739380 1776.273682,1845.220459 
	C1773.881714,1839.822510 1772.144043,1836.729126 1771.123657,1833.414917 
	C1769.363281,1827.697144 1765.868652,1827.429443 1760.420288,1829.590210 
	C1760.846313,1838.702148 1758.557861,1847.841431 1761.905518,1856.808716 
	C1762.069946,1857.249268 1763.638794,1857.165405 1765.320312,1857.460205 
	C1765.734497,1855.041626 1766.106934,1852.867554 1766.597656,1849.185303 
M1741.378540,1837.723511 
	C1741.491699,1843.012329 1741.379517,1848.322144 1741.869019,1853.575928 
	C1741.998901,1854.970459 1743.977051,1856.192749 1745.106567,1857.493896 
	C1746.171631,1856.121094 1748.070557,1854.798096 1748.156128,1853.366943 
	C1748.505737,1847.512085 1748.301880,1841.624023 1748.301880,1837.146362 
	C1751.433716,1833.605591 1756.894531,1835.065063 1755.544800,1829.097656 
	C1748.467163,1827.938843 1741.302734,1827.341675 1731.525269,1830.238159 
	C1735.886719,1832.999634 1738.356689,1834.563354 1741.378540,1837.723511 
M1253.562256,983.059387 
	C1253.562256,983.059387 1253.090820,982.859985 1253.090820,982.859985 
	C1253.090820,982.859985 1253.209839,983.338379 1253.562256,983.059387 
z"/>
<path fill="#C83031" opacity="1.000000" stroke="none" 
	d="
M1695.803223,1848.203979 
	C1713.565552,1862.616089 1722.027710,1881.429443 1725.738770,1902.645996 
	C1727.048340,1910.132446 1727.593262,1917.842651 1727.605957,1925.452148 
	C1727.736450,2003.776733 1727.686157,2082.101562 1727.686157,2160.426514 
	C1727.686157,2164.350342 1727.686157,2168.274170 1727.686157,2172.939453 
	C1708.834106,2172.939453 1691.007568,2172.939453 1672.026611,2172.939453 
	C1670.154297,2161.850586 1668.242554,2150.527100 1666.030396,2137.425293 
	C1662.512695,2140.042725 1660.007935,2141.854492 1657.557861,2143.737793 
	C1637.840332,2158.895996 1616.832886,2171.412842 1592.063965,2176.550293 
	C1564.089355,2182.352783 1536.424805,2181.579102 1509.549927,2171.639404 
	C1486.786743,2163.220703 1470.506226,2147.420898 1462.638428,2124.258057 
	C1453.698120,2097.937744 1453.566040,2071.253906 1462.939209,2044.946045 
	C1472.546631,2017.980469 1492.124390,2000.013550 1517.275024,1987.857666 
	C1544.655151,1974.623901 1574.009277,1969.175537 1604.177979,1967.686523 
	C1621.061035,1966.853027 1637.958740,1966.314575 1655.907959,1965.601196 
	C1656.055908,1945.618530 1658.902588,1925.685303 1651.278931,1906.512939 
	C1646.014404,1893.272949 1635.613403,1885.018188 1622.541138,1880.500244 
	C1615.387573,1878.027954 1607.706177,1876.367798 1600.161499,1875.866943 
	C1567.209351,1873.679688 1535.149414,1878.828125 1503.802734,1888.906616 
	C1497.851929,1890.819946 1491.878052,1892.661743 1484.717407,1894.912720 
	C1481.121826,1879.904663 1477.748901,1865.826050 1474.231812,1851.145996 
	C1477.259888,1849.644531 1479.799072,1848.169312 1482.494751,1847.082031 
	C1513.844604,1834.437256 1546.138672,1826.013428 1580.021851,1823.421753 
	C1602.723145,1821.685303 1625.208984,1821.657471 1647.516602,1826.237793 
	C1664.969604,1829.821533 1681.358887,1836.109619 1695.803223,1848.203979 
M1568.859985,2019.638794 
	C1557.589600,2023.194336 1547.201416,2028.286499 1539.517456,2037.599731 
	C1527.302490,2052.404541 1525.901978,2069.648438 1529.073853,2087.636475 
	C1534.421753,2117.965088 1560.075562,2129.464355 1585.901855,2127.068848 
	C1611.372559,2124.706299 1632.386353,2112.140869 1652.000732,2096.646729 
	C1655.656982,2093.758545 1656.387817,2090.482178 1656.369995,2086.297119 
	C1656.276855,2064.322266 1656.358276,2042.346558 1656.274780,2020.371460 
	C1656.265381,2017.878540 1655.600708,2015.388062 1655.186279,2012.526245 
	C1626.179810,2012.146484 1597.936401,2011.015747 1568.859985,2019.638794 
z"/>
<path fill="#C83132" opacity="1.000000" stroke="none" 
	d="
M888.734253,2177.569580 
	C880.261475,2175.105225 872.427002,2173.305176 865.055359,2170.350098 
	C842.704834,2161.390625 827.779114,2145.067383 820.290405,2122.312500 
	C813.283081,2101.020264 812.559875,2079.344238 817.536316,2057.379395 
	C824.408203,2027.048828 842.743408,2005.873169 869.346558,1991.096924 
	C890.925171,1979.111572 914.362732,1972.641602 938.649231,1970.047119 
	C959.433105,1967.826904 980.416992,1967.462158 1001.316650,1966.357666 
	C1005.219604,1966.151367 1009.142822,1966.328125 1013.965027,1966.328125 
	C1014.008789,1947.719116 1016.309021,1930.136108 1011.677368,1912.854614 
	C1007.279297,1896.444458 996.259216,1885.715698 980.429077,1880.481201 
	C972.629028,1877.902222 964.255859,1876.359497 956.047058,1875.835327 
	C921.667358,1873.639526 888.469055,1880.031616 855.976013,1890.828735 
	C852.510010,1891.980469 848.986755,1892.967285 845.461365,1893.925293 
	C844.904419,1894.076660 844.195007,1893.667358 842.501709,1893.269531 
	C839.272339,1879.637817 835.932251,1865.538574 832.521790,1851.142090 
	C845.452148,1844.137573 858.799805,1840.064331 872.095459,1835.957886 
	C905.774475,1825.555786 940.306946,1821.027954 975.494751,1822.433838 
	C995.185364,1823.220581 1014.586304,1826.466431 1032.705566,1834.716919 
	C1061.589111,1847.868774 1078.505981,1870.515869 1083.722168,1901.641846 
	C1085.417236,1911.756958 1086.194824,1922.139404 1086.221558,1932.402588 
	C1086.422485,2009.395630 1086.335083,2086.389404 1086.312622,2163.383057 
	C1086.311768,2166.334717 1086.053223,2169.286377 1085.881348,2172.950195 
	C1067.268555,2172.950195 1049.116211,2172.950195 1030.120483,2172.950195 
	C1028.279541,2161.612305 1026.438110,2150.270752 1024.303223,2137.123047 
	C1020.286560,2140.257812 1017.530029,2142.407471 1014.775208,2144.559082 
	C994.573364,2160.339111 972.539246,2172.426514 947.117798,2177.338867 
	C928.000061,2181.033447 908.782959,2180.807617 888.734253,2177.569580 
M899.776001,2113.223633 
	C913.020508,2125.071289 928.548523,2128.689209 945.942749,2126.674316 
	C970.724487,2123.804199 991.030457,2111.782959 1010.093750,2096.717773 
	C1013.847534,2093.751221 1014.362244,2090.442383 1014.352112,2086.335449 
	C1014.298218,2064.367188 1014.358154,2042.398804 1014.276550,2020.430786 
	C1014.267273,2017.932495 1013.618591,2015.436523 1013.212463,2012.557129 
	C990.564819,2012.175293 968.594482,2011.061035 946.938171,2015.068726 
	C936.248108,2017.046997 925.531433,2020.102661 915.544800,2024.356445 
	C902.543579,2029.894043 892.666199,2039.718506 888.842285,2053.648193 
	C883.128357,2074.462402 884.707336,2094.490234 899.776001,2113.223633 
z"/>
<path fill="#C83031" opacity="1.000000" stroke="none" 
	d="
M1201.828247,930.082153 
	C1190.118286,919.800720 1178.037598,909.907410 1166.779541,899.152954 
	C1146.553101,879.831360 1126.403076,860.395752 1106.980347,840.275146 
	C1078.272339,810.535645 1051.567017,779.081177 1030.779297,743.105103 
	C1018.726685,722.246277 1009.345947,700.358826 1005.561462,676.257385 
	C999.988159,640.763977 1009.063110,609.102112 1029.421143,580.149231 
	C1051.812256,548.304749 1079.426392,521.354431 1109.289551,496.764801 
	C1145.500366,466.948425 1182.532104,438.131470 1218.958496,408.573700 
	C1253.913330,380.210022 1286.987183,349.899780 1313.472656,313.122864 
	C1338.025024,279.030212 1354.196045,241.707535 1358.482666,199.463165 
	C1361.303711,171.660828 1358.836304,144.413116 1352.867188,117.306580 
	C1352.447998,115.402946 1352.245850,113.451485 1351.547607,109.005714 
	C1354.859741,112.224724 1356.790283,113.664543 1358.175171,115.513138 
	C1375.702026,138.905640 1386.308838,165.171707 1390.200439,194.100845 
	C1396.125244,238.143311 1386.159546,279.369385 1367.328735,318.853058 
	C1351.156982,352.761688 1329.153809,382.752167 1304.548462,410.966919 
	C1273.147827,446.973755 1237.370239,478.230316 1200.075562,507.870483 
	C1170.810791,531.128967 1143.616211,556.499695 1121.192261,586.587769 
	C1108.612183,603.467346 1098.152832,621.534058 1090.975952,641.484375 
	C1078.219604,676.944702 1080.097900,711.925171 1093.216064,746.793823 
	C1103.021851,772.858337 1117.512939,796.331787 1132.900269,819.315430 
	C1151.414429,846.969666 1170.281128,874.391785 1188.482178,902.249512 
	C1193.895752,910.535156 1197.583496,919.948364 1201.902100,929.526184 
	C1201.742310,930.207520 1201.828247,930.082153 1201.828247,930.082153 
z"/>
<path fill="#C83031" opacity="1.000000" stroke="none" 
	d="
M1319.727051,2172.866699 
	C1290.425537,2173.328857 1261.818970,2173.328857 1232.223145,2173.328857 
	C1197.056641,2058.942871 1161.923584,1944.665405 1126.792358,1830.393799 
	C1134.786865,1827.891968 1184.025146,1827.145142 1204.038940,1828.990356 
	C1207.751831,1840.618530 1211.664307,1852.588501 1215.398071,1864.614014 
	C1232.850952,1920.823853 1250.512329,1976.971313 1267.520020,2033.315918 
	C1272.698120,2050.470215 1276.022095,2068.183838 1280.202637,2085.639648 
	C1281.103516,2089.400879 1282.035889,2093.154541 1284.093262,2096.971191 
	C1301.192627,2053.935547 1314.015991,2009.848389 1325.334961,1965.296143 
	C1336.708252,1920.530518 1345.122681,1875.164917 1351.601196,1828.956543 
	C1376.645142,1828.956543 1400.799194,1828.956543 1425.688599,1828.956543 
	C1425.688599,1831.843506 1426.129883,1834.765991 1425.623535,1837.513794 
	C1414.466309,1898.071899 1399.813110,1957.776489 1381.398926,2016.539795 
	C1365.469360,2067.374512 1346.826660,2117.180420 1324.239502,2165.464111 
	C1323.123047,2167.850586 1321.701416,2170.094482 1319.727051,2172.866699 
z"/>
<path fill="#3072B6" opacity="1.000000" stroke="none" 
	d="
M744.160889,1442.941650 
	C749.429932,1447.325073 754.009094,1451.983765 759.563049,1454.423828 
	C783.763367,1465.055908 809.429871,1470.863037 835.299561,1475.648560 
	C875.195496,1483.028809 915.434875,1487.781372 955.924927,1490.318481 
	C979.465393,1491.793457 1003.008911,1493.391602 1026.576172,1494.226685 
	C1056.830078,1495.298706 1087.110352,1495.610718 1117.376343,1496.369263 
	C1123.339111,1496.518677 1129.294922,1497.659302 1135.242798,1497.574097 
	C1171.845337,1497.049927 1208.453857,1496.617920 1245.041870,1495.531006 
	C1272.605347,1494.712646 1300.172852,1493.423584 1327.682373,1491.527344 
	C1383.339478,1487.690674 1438.968872,1483.330078 1494.252930,1475.614380 
	C1534.095947,1470.053589 1573.913452,1463.992920 1612.428223,1451.980591 
	C1625.348511,1447.950806 1637.652588,1441.809570 1649.969727,1436.058472 
	C1654.063110,1434.147095 1657.639404,1430.759399 1660.895508,1427.491943 
	C1670.665039,1417.688110 1671.457764,1409.058105 1664.177856,1397.085327 
	C1663.503540,1395.976440 1662.852051,1394.853516 1662.078735,1393.549194 
	C1677.980713,1395.035034 1691.253418,1410.583862 1688.023315,1424.596802 
	C1686.900391,1429.468018 1683.688721,1434.290771 1680.291626,1438.126343 
	C1668.286377,1451.680542 1652.238647,1459.273926 1636.050903,1466.391479 
	C1595.316040,1484.302124 1552.417114,1495.055786 1509.046143,1504.077881 
	C1459.880127,1514.305664 1410.280151,1521.787964 1360.268188,1526.411621 
	C1337.123291,1528.551270 1313.975830,1530.781738 1290.784302,1532.266846 
	C1263.264038,1534.028931 1235.708252,1535.665161 1208.144897,1536.223511 
	C1161.236572,1537.173584 1114.305786,1537.823242 1067.393066,1537.466797 
	C1037.171509,1537.237305 1006.923401,1535.585449 976.762390,1533.489380 
	C937.680115,1530.773193 898.545288,1528.043945 859.664612,1523.387207 
	C808.563599,1517.266846 757.655334,1509.484619 706.736816,1501.928101 
	C692.589417,1499.828369 678.829956,1495.598022 666.054016,1488.786987 
	C665.172913,1488.317261 664.235352,1487.950806 663.366638,1487.460815 
	C644.412170,1476.767944 642.213074,1460.881592 657.480469,1445.027710 
	C672.839172,1429.079102 692.205017,1419.339966 712.021118,1410.564087 
	C748.426941,1394.441284 786.428162,1383.531006 825.972412,1378.743042 
	C841.791931,1376.827637 857.877319,1376.183838 873.667603,1379.917236 
	C877.756104,1380.883911 881.671814,1382.581909 885.594604,1385.884033 
	C881.607910,1386.481812 877.640442,1387.355957 873.631470,1387.634521 
	C834.191895,1390.375610 797.276672,1401.873047 762.311340,1419.909546 
	C757.368896,1422.459229 753.145996,1426.441895 748.696594,1429.898438 
	C744.702942,1433.001099 742.861267,1437.067505 744.160889,1442.941650 
z"/>
<path fill="#C83132" opacity="1.000000" stroke="none" 
	d="
M684.711548,2280.684082 
	C673.161316,2287.338867 662.175232,2293.485840 649.305176,2296.778809 
	C637.981323,2283.443115 626.822937,2270.302002 614.859253,2256.212891 
	C617.730469,2254.226807 619.965698,2252.511719 622.357178,2251.052979 
	C642.808533,2238.579102 660.530273,2223.297363 673.103943,2202.552246 
	C680.334900,2190.622559 683.873657,2177.453369 685.484558,2163.883301 
	C687.088745,2150.370850 688.187439,2136.709473 688.207214,2123.111328 
	C688.401855,1989.128418 688.325195,1855.144897 688.325623,1721.161621 
	C688.325684,1716.851196 688.325684,1712.540771 688.325684,1708.455322 
	C695.808105,1705.875610 751.887207,1705.356201 763.847229,1707.698608 
	C764.007324,1710.737183 764.326599,1713.974854 764.327148,1717.212524 
	C764.349548,1851.529175 764.439209,1985.845825 764.241943,2120.162109 
	C764.210754,2141.431885 762.506775,2162.644775 758.242554,2183.595947 
	C751.201477,2218.190674 732.480896,2245.218506 704.960266,2266.566650 
	C698.658691,2271.454834 691.882751,2275.731201 684.711548,2280.684082 
z"/>
<path fill="#C83031" opacity="1.000000" stroke="none" 
	d="
M1539.154175,415.847626 
	C1498.401245,439.788025 1458.003052,464.286652 1419.203247,491.336578 
	C1386.928467,513.837708 1355.859741,537.778381 1328.898682,566.626709 
	C1315.867676,580.570007 1304.861328,595.915283 1297.085083,613.487366 
	C1285.291016,640.138733 1288.513184,666.064514 1300.557495,691.579651 
	C1310.414429,712.460815 1323.947144,731.052673 1337.223877,749.794556 
	C1343.956543,759.298218 1351.245361,768.467346 1357.273926,778.399963 
	C1382.332153,819.684814 1378.705078,860.224365 1352.208130,899.235779 
	C1328.340454,934.376099 1295.512817,959.699036 1259.292603,980.978943 
	C1258.561035,981.408691 1257.498901,981.275513 1254.318604,981.729065 
	C1257.963867,977.825928 1260.276123,975.298157 1262.643921,972.823486 
	C1276.414062,958.431458 1287.054688,942.044739 1293.337769,923.101074 
	C1304.905518,888.223267 1296.021362,857.371460 1273.291992,830.029846 
	C1254.296387,807.179626 1236.310059,783.772583 1223.219116,756.929626 
	C1209.548096,728.897461 1202.093384,699.451782 1204.440918,668.163025 
	C1206.686890,638.231445 1217.916626,611.486145 1235.252563,587.119141 
	C1256.797241,556.836182 1284.550781,533.242737 1314.990479,512.510437 
	C1361.235596,481.013153 1411.629028,457.772614 1463.950562,438.581665 
	C1484.850586,430.915771 1506.234985,424.563416 1527.446777,417.762024 
	C1530.555176,416.765350 1533.929932,416.599060 1538.088135,416.001129 
	C1538.994995,415.953674 1539.154175,415.847626 1539.154175,415.847626 
z"/>
<path fill="#3173B7" opacity="1.000000" stroke="none" 
	d="
M1000.940186,1268.917603 
	C1000.462585,1270.317749 1000.336548,1272.020630 999.440796,1273.060791 
	C996.839600,1276.081543 993.589966,1278.581543 991.213989,1281.750244 
	C986.670288,1287.809692 987.294189,1293.757324 993.314148,1298.385986 
	C996.933411,1301.168823 1001.204712,1303.738770 1005.572266,1304.795776 
	C1019.422424,1308.147339 1033.333740,1311.879639 1047.443604,1313.390991 
	C1075.824097,1316.431152 1104.334106,1318.362915 1132.824829,1320.232910 
	C1148.400269,1321.255371 1164.053345,1321.770874 1179.657471,1321.547729 
	C1217.240356,1321.010742 1254.556274,1317.034912 1291.655518,1311.157227 
	C1311.337646,1308.038818 1330.910767,1304.234131 1350.586060,1301.068848 
	C1353.619995,1300.580811 1357.478638,1300.959351 1360.043579,1302.478027 
	C1384.439453,1316.924072 1410.237671,1328.444092 1436.183594,1339.685425 
	C1436.455566,1339.803345 1436.618896,1340.172363 1437.638428,1341.372070 
	C1434.029541,1343.038574 1430.711426,1344.738281 1427.270386,1346.134399 
	C1386.434814,1362.700684 1344.196411,1374.383423 1300.849487,1382.097900 
	C1269.422852,1387.691162 1237.814331,1391.717407 1205.841919,1392.373047 
	C1188.893677,1392.720581 1171.923706,1394.046631 1155.007446,1393.520996 
	C1104.392456,1391.947632 1054.206055,1386.641479 1005.574585,1371.615601 
	C984.253296,1365.027832 963.274536,1357.251343 945.883850,1342.463989 
	C942.623169,1339.691528 939.507324,1336.567017 937.012756,1333.108643 
	C928.996399,1321.994629 929.842590,1310.527344 939.082886,1300.406982 
	C948.074646,1290.558960 959.693481,1284.705444 971.722900,1279.753540 
	C980.933105,1275.962280 990.501343,1273.040649 1000.521973,1269.381592 
	C1001.133728,1269.031006 1000.940125,1268.917603 1000.940186,1268.917603 
z"/>
<path fill="#3072B6" opacity="1.000000" stroke="none" 
	d="
M781.526917,997.549316 
	C810.093567,981.424194 839.772705,969.729797 870.198669,959.810120 
	C906.354065,948.022400 943.308044,939.896118 981.162842,936.105591 
	C992.394470,934.980957 1003.682373,934.381958 1014.955017,933.721497 
	C1019.460449,933.457458 1023.994324,933.677979 1028.735718,935.516785 
	C1025.712891,936.406982 1022.710022,937.372986 1019.664185,938.175720 
	C985.875671,947.080933 952.195862,956.377319 919.841125,969.749451 
	C910.028015,973.805176 900.530579,978.722778 891.214844,983.839600 
	C886.932556,986.191650 882.950256,989.545044 879.699280,993.213074 
	C874.813110,998.725891 875.445312,1003.441162 881.589294,1007.426819 
	C885.995300,1010.285217 890.968872,1012.516846 895.974365,1014.158813 
	C914.408325,1020.205688 933.582520,1022.357849 952.779724,1024.297607 
	C1006.552307,1029.731445 1060.499878,1028.404907 1114.398560,1028.178345 
	C1140.992554,1028.066528 1167.609985,1027.039673 1194.164062,1025.511230 
	C1232.290405,1023.316650 1270.443359,1021.067017 1308.451172,1017.440247 
	C1375.907471,1011.003479 1443.111328,1002.386292 1509.874878,990.598938 
	C1512.300293,990.170654 1514.824341,990.300720 1517.712646,991.489258 
	C1516.090820,992.416077 1514.487427,993.376892 1512.844482,994.264343 
	C1494.706055,1004.061584 1476.901001,1014.566223 1458.285645,1023.353882 
	C1447.921631,1028.246338 1436.364868,1031.005371 1425.071167,1033.467041 
	C1375.997437,1044.163086 1326.451904,1052.006592 1276.393921,1056.367188 
	C1251.584961,1058.528320 1226.740723,1060.282104 1201.927856,1062.401978 
	C1140.472656,1067.652588 1078.874756,1066.647949 1017.321533,1066.115112 
	C988.108643,1065.862183 958.863220,1063.894409 929.727356,1061.533813 
	C887.990601,1058.152466 846.281433,1053.884888 805.913269,1041.898438 
	C796.442139,1039.086304 787.051880,1035.151001 778.532043,1030.177612 
	C764.375610,1021.913696 764.163513,1011.496277 776.888184,1000.884338 
	C778.163330,999.820923 779.578979,998.925964 781.526917,997.549316 
z"/>
<path fill="#3073B7" opacity="1.000000" stroke="none" 
	d="
M1443.678711,1187.550049 
	C1395.922363,1200.297974 1348.376587,1210.086670 1300.114014,1215.908813 
	C1270.776733,1219.447998 1241.286865,1221.772339 1211.837280,1224.316406 
	C1170.284668,1227.906006 1128.607056,1227.319946 1087.057129,1225.397949 
	C1039.868530,1223.215332 992.878479,1217.975464 947.461121,1203.975342 
	C934.192322,1199.885254 921.477356,1193.813965 908.849670,1187.919678 
	C903.854187,1185.587891 899.614807,1181.467285 895.333313,1177.807739 
	C884.808716,1168.811768 885.188965,1153.369629 893.839233,1143.822510 
	C896.509521,1140.875488 899.402344,1138.054688 902.534485,1135.613892 
	C921.197937,1121.069580 943.001099,1113.123901 966.105835,1106.779053 
	C964.067322,1109.028198 961.822815,1111.125732 960.034119,1113.558594 
	C956.515686,1118.343750 952.547058,1122.983398 950.044800,1128.287231 
	C946.239319,1136.353271 948.300964,1143.251587 955.822510,1148.280396 
	C960.731079,1151.562256 966.195190,1154.805176 971.850403,1156.023926 
	C986.424622,1159.164673 1001.160156,1162.011597 1015.979492,1163.478149 
	C1067.653076,1168.591553 1119.461670,1171.529907 1171.422485,1170.293701 
	C1206.319946,1169.463501 1241.174683,1167.545166 1275.743408,1162.534424 
	C1315.533569,1156.766846 1355.235474,1150.388062 1394.967407,1144.222046 
	C1400.023193,1143.437500 1404.430176,1143.245117 1408.833618,1147.205200 
	C1423.820923,1160.682861 1440.909668,1170.920410 1459.675537,1178.329956 
	C1460.871948,1178.802490 1461.980591,1179.496948 1464.821655,1180.958252 
	C1460.325439,1182.554443 1457.243652,1183.753052 1454.094849,1184.737305 
	C1450.921997,1185.729004 1447.682739,1186.507935 1443.678711,1187.550049 
z"/>
<path fill="#3071B5" opacity="1.000000" stroke="none" 
	d="
M1538.022461,1552.067627 
	C1590.221802,1541.974854 1641.031128,1530.022217 1689.497314,1509.823364 
	C1700.222046,1505.353638 1710.602051,1499.991943 1720.904297,1494.590088 
	C1733.327881,1488.076294 1744.352173,1479.619629 1754.038574,1467.832153 
	C1755.033447,1475.773071 1752.577271,1481.809204 1749.894775,1487.732788 
	C1742.802490,1503.394775 1730.962646,1514.895874 1717.179565,1524.653076 
	C1697.159668,1538.824951 1675.002808,1548.694702 1652.011719,1556.822266 
	C1610.145996,1571.622192 1566.920166,1580.810547 1523.184204,1587.902832 
	C1481.829956,1594.608887 1440.282959,1599.618652 1398.476685,1602.395874 
	C1377.593384,1603.783203 1356.711548,1605.235352 1335.811646,1606.320923 
	C1317.882446,1607.252197 1299.933228,1608.020020 1281.984131,1608.302612 
	C1241.034180,1608.947632 1200.072266,1609.898438 1159.127686,1609.487427 
	C1126.563965,1609.160645 1093.969482,1607.714233 1061.477661,1605.473755 
	C1020.063354,1602.618164 978.675720,1598.972168 937.710022,1591.873047 
	C912.457703,1587.496826 887.353333,1582.376831 863.298767,1573.223999 
	C858.267212,1571.309570 853.536987,1568.603149 849.338013,1564.639526 
	C864.095642,1566.598511 878.827576,1568.783203 893.616577,1570.465454 
	C918.033813,1573.242798 942.455627,1576.070679 966.935425,1578.182739 
	C992.741150,1580.409302 1018.612854,1581.889038 1044.465088,1583.549561 
	C1052.101929,1584.039917 1059.769165,1584.154785 1067.424805,1584.241211 
	C1111.378296,1584.737427 1155.331909,1585.433228 1199.286621,1585.511475 
	C1218.895752,1585.546509 1238.533447,1584.734131 1258.112305,1583.549194 
	C1311.151733,1580.339111 1364.179932,1577.119263 1416.975586,1570.598389 
	C1457.238281,1565.625488 1497.382446,1560.131348 1538.022461,1552.067627 
z"/>
<path fill="#3072B6" opacity="1.000000" stroke="none" 
	d="
M1689.427246,1046.800293 
	C1690.026001,1035.750488 1692.098999,1025.271118 1690.585083,1015.338379 
	C1684.519531,975.542114 1658.855835,953.164856 1621.902954,942.048340 
	C1605.268433,937.044128 1588.477417,938.280579 1571.849243,942.887024 
	C1564.983521,944.789001 1558.046631,946.434082 1549.479736,948.620239 
	C1555.479370,939.593323 1561.982544,933.843933 1570.177979,930.873108 
	C1610.443237,916.276794 1650.898438,914.124573 1690.556519,932.453369 
	C1723.888306,947.858459 1746.299683,972.997009 1753.066895,1010.015259 
	C1757.082153,1031.978882 1752.960083,1053.021484 1743.703613,1073.176392 
	C1733.495117,1095.405029 1717.826050,1113.392456 1699.652588,1129.302002 
	C1671.304688,1154.118408 1638.620483,1171.798096 1604.125488,1186.385864 
	C1577.432129,1197.674194 1549.977295,1206.727051 1522.008423,1214.257568 
	C1520.508179,1214.661499 1518.942383,1214.821777 1516.815796,1215.200806 
	C1518.614502,1208.721069 1523.122803,1206.296265 1527.835815,1203.778564 
	C1561.060669,1186.028442 1593.004761,1166.299316 1621.886108,1141.942505 
	C1643.383423,1123.812988 1662.995605,1103.912354 1676.335815,1078.867310 
	C1681.609131,1068.967529 1685.003296,1058.067017 1689.427246,1046.800293 
z"/>
<path fill="#BA2D2E" opacity="1.000000" stroke="none" 
	d="
M1766.538452,1849.939331 
	C1766.106934,1852.867554 1765.734497,1855.041626 1765.320312,1857.460205 
	C1763.638794,1857.165405 1762.069946,1857.249268 1761.905518,1856.808716 
	C1758.557861,1847.841431 1760.846313,1838.702148 1760.420288,1829.590210 
	C1765.868652,1827.429443 1769.363281,1827.697144 1771.123657,1833.414917 
	C1772.144043,1836.729126 1773.881714,1839.822510 1776.273682,1845.220459 
	C1778.750366,1839.739380 1780.536621,1836.659302 1781.548828,1833.342896 
	C1783.095703,1828.274292 1786.265869,1827.499268 1791.382446,1829.080688 
	C1792.987305,1838.033813 1793.191162,1847.167358 1791.291260,1856.294800 
	C1791.140259,1857.020386 1789.211182,1857.375732 1787.399414,1858.242065 
	C1786.283936,1854.751465 1785.344971,1851.813599 1784.052124,1847.768066 
	C1781.319824,1851.621704 1779.078735,1854.782593 1776.036255,1859.073975 
	C1773.114624,1854.077271 1770.903320,1850.295288 1768.384521,1845.987427 
	C1767.514038,1847.545288 1767.055786,1848.365234 1766.538452,1849.939331 
z"/>
<path fill="#C02F30" opacity="1.000000" stroke="none" 
	d="
M1741.102539,1836.925293 
	C1738.356689,1834.563354 1735.886719,1832.999634 1731.525269,1830.238159 
	C1741.302734,1827.341675 1748.467163,1827.938843 1755.544800,1829.097656 
	C1756.894531,1835.065063 1751.433716,1833.605591 1748.301880,1837.146362 
	C1748.301880,1841.624023 1748.505737,1847.512085 1748.156128,1853.366943 
	C1748.070557,1854.798096 1746.171631,1856.121094 1745.106689,1857.493896 
	C1743.977051,1856.192749 1741.998901,1854.970459 1741.869019,1853.575928 
	C1741.379517,1848.322144 1741.491699,1843.012329 1741.102539,1836.925293 
z"/>
<path fill="#3173B7" opacity="1.000000" stroke="none" 
	d="
M1001.130127,1268.918945 
	C1001.126465,1268.806763 1001.329834,1269.001587 1001.135010,1268.959595 
	C1000.940125,1268.917603 1001.133728,1269.031006 1001.130127,1268.918945 
z"/>
<path fill="#C83031" opacity="1.000000" stroke="none" 
	d="
M1253.385986,983.198853 
	C1253.209839,983.338379 1253.090820,982.859985 1253.090820,982.859985 
	C1253.090820,982.859985 1253.562256,983.059387 1253.385986,983.198853 
z"/>
<path fill="#C83031" opacity="1.000000" stroke="none" 
	d="
M1201.700195,930.270752 
	C1201.657959,930.334045 1202.283569,930.098267 1202.283569,930.098267 
	C1202.283569,930.098267 1202.011597,930.362915 1201.919922,930.222534 
	C1201.828247,930.082153 1201.742310,930.207520 1201.700195,930.270752 
z"/>
<path fill="#C83031" opacity="1.000000" stroke="none" 
	d="
M1538.971680,416.046448 
	C1538.821899,416.159576 1538.695312,416.179962 1538.861572,416.023987 
	C1539.154175,415.847626 1538.994995,415.953674 1538.971680,416.046448 
z"/>
<path fill="" opacity="0.0" stroke="none" 
	d="
M1569.606201,2019.349731 
	C1597.936401,2011.015747 1626.179810,2012.146484 1655.186279,2012.526245 
	C1655.600708,2015.388062 1656.265381,2017.878540 1656.274780,2020.371460 
	C1656.358276,2042.346558 1656.276855,2064.322266 1656.369995,2086.297119 
	C1656.387817,2090.482178 1655.656982,2093.758545 1652.000732,2096.646729 
	C1632.386353,2112.140869 1611.372559,2124.706299 1585.901855,2127.068848 
	C1560.075562,2129.464355 1534.421753,2117.965088 1529.073853,2087.636475 
	C1525.901978,2069.648438 1527.302490,2052.404541 1539.517456,2037.599731 
	C1547.201416,2028.286499 1557.589600,2023.194336 1569.606201,2019.349731 
z"/>
<path fill="" opacity="0.0" stroke="none" 
	d="
M899.278320,2112.693848 
	C884.707336,2094.490234 883.128357,2074.462402 888.842285,2053.648193 
	C892.666199,2039.718506 902.543579,2029.894043 915.544800,2024.356445 
	C925.531433,2020.102661 936.248108,2017.046997 946.938171,2015.068726 
	C968.594482,2011.061035 990.564819,2012.175293 1013.212463,2012.557129 
	C1013.618591,2015.436523 1014.267273,2017.932495 1014.276550,2020.430786 
	C1014.358154,2042.398804 1014.298218,2064.367188 1014.352112,2086.335449 
	C1014.362244,2090.442383 1013.847534,2093.751221 1010.093750,2096.717773 
	C991.030457,2111.782959 970.724487,2123.804199 945.942749,2126.674316 
	C928.548523,2128.689209 913.020508,2125.071289 899.278320,2112.693848 
z"/>
</svg>