<svg version="1.1" id="Layer_1" xmlns="http://www.w3.org/2000/svg" xmlns:xlink="http://www.w3.org/1999/xlink" x="0px" y="0px"
	 width="100%" viewBox="0 0 456 456" enable-background="new 0 0 456 456" xml:space="preserve">
<path fill="#512BD4" opacity="1.000000" stroke="none" 
	d="
M252.000000,457.000000 
	C168.022873,457.000000 84.545746,457.000000 1.034311,457.000000 
	C1.034311,305.064514 1.034311,153.129028 1.034311,1.096770 
	C152.893799,1.096770 304.787659,1.096770 456.840759,1.096770 
	C456.840759,152.999863 456.840759,304.999908 456.840759,457.000000 
	C388.795685,457.000000 320.647827,457.000000 252.000000,457.000000 
M211.109375,273.497986 
	C211.109375,239.754776 211.109375,206.011581 211.109375,172.292587 
	C204.647507,172.292587 198.894592,172.292587 192.778122,172.292587 
	C192.778122,202.418106 192.778122,232.247360 192.778122,263.073883 
	C191.321762,260.854218 190.411148,259.518616 189.552689,258.150299 
	C172.303131,230.655670 155.074371,203.147934 137.772430,175.686325 
	C136.877731,174.266251 135.417252,172.249268 134.136124,172.184998 
	C127.227516,171.838318 120.292336,172.020874 113.316345,172.020874 
	C113.316345,211.790939 113.316345,250.880981 113.316345,290.250824 
	C119.455933,290.250824 125.358437,290.250824 131.643478,290.250824 
	C131.643478,259.753387 131.643478,229.577713 131.643478,198.056686 
	C132.712814,199.625275 133.048828,200.087357 133.353409,200.569336 
	C151.581879,229.414627 169.790878,258.272308 188.085205,287.075775 
	C188.974442,288.475800 190.559204,290.315765 191.907837,290.391663 
	C198.177521,290.744598 204.478149,290.547882 211.109375,290.547882 
	C211.109375,284.798615 211.109375,279.647675 211.109375,273.497986 
M272.501404,188.794708 
	C281.240875,188.794708 289.980347,188.794708 298.557190,188.794708 
	C298.557190,182.675461 298.557190,177.435059 298.557190,172.302216 
	C277.775970,172.302216 257.376068,172.302216 236.984528,172.302216 
	C236.984528,211.819412 236.984528,251.024765 236.984528,290.166504 
	C258.598816,290.166504 279.820221,290.166504 301.008911,290.166504 
	C301.008911,284.571198 301.008911,279.373657 301.008911,273.789124 
	C285.831787,273.789124 271.068878,273.789124 256.182983,273.789124 
	C256.182983,262.013580 256.182983,250.639954 256.182983,238.926147 
	C269.297424,238.926147 282.077515,238.926147 295.096375,238.926147 
	C295.096375,233.198639 295.096375,227.819107 295.096375,221.883362 
	C281.812469,221.883362 268.918640,221.883362 256.208923,221.883362 
	C256.208923,210.576523 256.208923,199.833389 256.208923,188.794708 
	C261.547729,188.794708 266.525177,188.794708 272.501404,188.794708 
M393.767883,184.216034 
	C393.767883,180.272186 393.767883,176.328339 393.767883,172.282623 
	C364.927826,172.282623 336.709930,172.282623 308.368835,172.282623 
	C308.368835,177.808975 308.368835,183.040665 308.368835,188.868927 
	C319.370178,188.868927 330.090027,188.868927 341.330261,188.868927 
	C341.330261,222.997513 341.330261,256.530121 341.330261,290.178650 
	C347.928894,290.178650 353.981262,290.178650 360.606232,290.178650 
	C360.606232,256.276733 360.606232,222.744965 360.606232,188.794189 
	C370.644470,188.794189 380.107635,188.731812 389.569000,188.833588 
	C392.281433,188.862762 394.258209,188.527786 393.767883,184.216034 
M83.238045,270.055511 
	C75.020844,270.462921 70.262146,275.177856 70.849953,282.329712 
	C71.382652,288.811096 77.451286,293.125763 84.526291,292.053223 
	C89.598137,291.284363 93.645546,286.954010 93.979004,281.939697 
	C94.356239,276.267090 90.989006,272.259033 83.238045,270.055511 
z"/>
<path fill="#FCFCFE" opacity="1.000000" stroke="none" 
	d="
M211.109375,273.997375 
	C211.109375,279.647675 211.109375,284.798615 211.109375,290.547882 
	C204.478149,290.547882 198.177521,290.744598 191.907837,290.391663 
	C190.559204,290.315765 188.974442,288.475800 188.085205,287.075775 
	C169.790878,258.272308 151.581879,229.414627 133.353409,200.569336 
	C133.048828,200.087357 132.712814,199.625275 131.643478,198.056686 
	C131.643478,229.577713 131.643478,259.753387 131.643478,290.250824 
	C125.358437,290.250824 119.455933,290.250824 113.316345,290.250824 
	C113.316345,250.880981 113.316345,211.790939 113.316345,172.020874 
	C120.292336,172.020874 127.227516,171.838318 134.136124,172.184998 
	C135.417252,172.249268 136.877731,174.266251 137.772430,175.686325 
	C155.074371,203.147934 172.303131,230.655670 189.552689,258.150299 
	C190.411148,259.518616 191.321762,260.854218 192.778122,263.073883 
	C192.778122,232.247360 192.778122,202.418106 192.778122,172.292587 
	C198.894592,172.292587 204.647507,172.292587 211.109375,172.292587 
	C211.109375,206.011581 211.109375,239.754776 211.109375,273.997375 
z"/>
<path fill="#FCFBFE" opacity="1.000000" stroke="none" 
	d="
M272.002014,188.794708 
	C266.525177,188.794708 261.547729,188.794708 256.208923,188.794708 
	C256.208923,199.833389 256.208923,210.576523 256.208923,221.883362 
	C268.918640,221.883362 281.812469,221.883362 295.096375,221.883362 
	C295.096375,227.819107 295.096375,233.198639 295.096375,238.926147 
	C282.077515,238.926147 269.297424,238.926147 256.182983,238.926147 
	C256.182983,250.639954 256.182983,262.013580 256.182983,273.789124 
	C271.068878,273.789124 285.831787,273.789124 301.008911,273.789124 
	C301.008911,279.373657 301.008911,284.571198 301.008911,290.166504 
	C279.820221,290.166504 258.598816,290.166504 236.984528,290.166504 
	C236.984528,251.024765 236.984528,211.819412 236.984528,172.302216 
	C257.376068,172.302216 277.775970,172.302216 298.557190,172.302216 
	C298.557190,177.435059 298.557190,182.675461 298.557190,188.794708 
	C289.980347,188.794708 281.240875,188.794708 272.002014,188.794708 
z"/>
<path fill="#FCFBFE" opacity="1.000000" stroke="none" 
	d="
M393.767303,184.677277 
	C394.258209,188.527786 392.281433,188.862762 389.569000,188.833588 
	C380.107635,188.731812 370.644470,188.794189 360.606232,188.794189 
	C360.606232,222.744965 360.606232,256.276733 360.606232,290.178650 
	C353.981262,290.178650 347.928894,290.178650 341.330261,290.178650 
	C341.330261,256.530121 341.330261,222.997513 341.330261,188.868927 
	C330.090027,188.868927 319.370178,188.868927 308.368835,188.868927 
	C308.368835,183.040665 308.368835,177.808975 308.368835,172.282623 
	C336.709930,172.282623 364.927826,172.282623 393.767883,172.282623 
	C393.767883,176.328339 393.767883,180.272186 393.767303,184.677277 
z"/>
<path fill="#FCFBFE" opacity="1.000000" stroke="none" 
	d="
M83.642952,270.086975 
	C90.989006,272.259033 94.356239,276.267090 93.979004,281.939697 
	C93.645546,286.954010 89.598137,291.284363 84.526291,292.053223 
	C77.451286,293.125763 71.382652,288.811096 70.849953,282.329712 
	C70.262146,275.177856 75.020844,270.462921 83.642952,270.086975 
z"/>
</svg>